<svg width="18" height="18" viewBox="0 0 18 18" fill="none" xmlns="http://www.w3.org/2000/svg">
<path d="M8.36588 0.262974C8.44916 0.179607 8.54805 0.113472 8.6569 0.0683485C8.76575 0.0232255 8.88243 0 9.00026 0C9.1181 0 9.23478 0.0232255 9.34363 0.0683485C9.45248 0.113472 9.55137 0.179607 9.63465 0.262974L17.737 8.36528C18.0875 8.72538 18.0875 9.29195 17.737 9.63404L9.63465 17.7364C9.55135 17.8199 9.45238 17.8862 9.34342 17.9314C9.23446 17.9766 9.11764 17.9999 8.99966 17.9999C8.88169 17.9999 8.76487 17.9766 8.65591 17.9314C8.54695 17.8862 8.44798 17.8199 8.36468 17.7364L0.263575 9.63404C0.180028 9.55075 0.113741 9.45178 0.0685113 9.34282C0.0232819 9.23386 0 9.11704 0 8.99906C0 8.88109 0.0232819 8.76427 0.0685113 8.65531C0.113741 8.54634 0.180028 8.44738 0.263575 8.36408L8.36588 0.262974ZM10.7966 7.20335H6.29529C6.05653 7.20335 5.82755 7.2982 5.65872 7.46703C5.48989 7.63586 5.39504 7.86484 5.39504 8.10361V11.7046H7.19555V9.00386H10.7966V11.2545L13.9475 8.10361L10.7966 4.95271V7.20335Z" fill="#1A73E8"/>
</svg>
